# xmcd
#
# Track frame offsets: 
#        150
#        12204
#        23737
#        35537
#        45729
#        58309
#        87145
#        98095
#        109349
#        119976
#        131563
#        147059
#        156450
#        176042
#        199659
#        212077
#        241447
#        256835
#        274562
#
# Disc length: 3834 seconds
#
# Revision: 0
# Processed by: cddbd v1.5.2PL0 Copyright (c) Steve Scherf et al.
# Submitted via: ExactAudioCopyFreeDBPlugin 1.0
#
DISCID=140ef813
DTITLE=Wilson Pickett - In Philadelphia and Don't Knock My Love [disc 1]
DTITLE=Various Artist - In Philadelphia
DYEAR=1970
DGENRE=Soul
TTITLE0=Run Joey Run
TTITLE1=Help The Needy
TTITLE2=Come Right Here
TTITLE3=Bumble Bee (Sting Me)
TTITLE4=Don't Let The Green Grass Fool You
TTITLE5=Get Me Back On Time, Engine Number Nine
TTITLE6=Days Go By
TTITLE7=International Playboy
TTITLE8=Ain't No Doubt About It
TTITLE9=International Playbox [remix] [bonus track]
TTITLE10=Pray For The Rain [bonus track]
TTITLE11=Let It Come Naturally [bonus track]
TTITLE12=Funky Broadway [live]
TTITLE13=Land Of 1000 Dances [live]
TTITLE14=Un' Avventura [bonus track]
TTITLE15=Heaven [bonus track]
TTITLE16=Can't Stop A Man In Love [bonus track]
TTITLE17=One Step Away [bonus track]
TTITLE18=Funk Factory [bonus track]
EXTD=
EXTT0=
EXTT1=
EXTT2=
EXTT3=
EXTT4=
EXTT5=
EXTT6=
EXTT7=
EXTT8=
EXTT9=
EXTT10=
EXTT11=
EXTT12=
EXTT13=
EXTT14=
EXTT15=
EXTT16=
EXTT17=
EXTT18=
PLAYORDER=
